<svg version="1" xmlns="http://www.w3.org/2000/svg" width="964" height="964" viewBox="0 0 723.000000 723.000000"><path d="M357.7.6c-.1.1-3.1.4-6.7.8-22.9 2.1-46.4 15.5-60.8 34.6-5.4 7.3-11.6 19.8-14.2 29-2.8 9.7-3.6 30.4-1.5 40 5.9 27.7 22.3 49.5 46.3 61.5 13.4 6.7 26.8 9.9 41.7 9.9 8.5-.1 24.8-3.1 31-5.9 1.7-.8 4.1-1.8 5.5-2.3 1.4-.5 5-2.5 8.1-4.3 19.8-12 34.1-30.8 40.1-52.9 1.9-7 2.3-11 2.3-23-.1-15.6-1.7-23.7-7.2-36-11.7-25.7-37.1-45.2-64.9-49.9C371.1 1 358.3 0 357.7.6z"/><path d="M65.3 155c-13.7 3.2-23.8 11.2-29.9 23.6-6 12-5.8 26.5.4 39.2 3.6 7.5 12.2 15.9 19.7 19.3 3.3 1.5 17.1 5.2 31 8.3 13.8 3.1 26.6 6.1 28.5 6.6 1.9.5 7.8 1.8 13 2.9 5.2 1.1 13.8 2.9 19 4 5.2 1.1 10.6 2.3 12 2.5 1.4.3 9.3 1.8 17.5 3.5 8.3 1.6 19.3 3.7 24.5 4.6 5.2.9 10.6 1.8 12 2 1.4.3 7 1.2 12.5 2.1 5.5.8 11.1 1.7 12.5 2 1.4.2 5.2.7 8.5 1 3.3.4 6.2.8 6.5.9.3.2 3.7.6 7.5 1 3.9.4 7.7.9 8.5 1 .8.2 2 .4 2.7.4 1.2.1 1.2 21-.2 61.1-1.2 35.8-4.7 89.7-7 109-.3 1.9-.7 5.7-1 8.5-1.2 11.1-2.2 19.4-3 24-.3 1.6-.7 5-1 7.5-.3 2.5-1.2 8.5-2.1 13.5-.8 4.9-1.7 10.2-1.9 11.6-.3 1.4-1.2 6.1-2 10.5-.9 4.3-1.8 9-2.1 10.4-.2 1.4-.7 3.8-1.1 5.5-.4 1.6-.8 3.4-.9 4-.1.5-1 3.9-1.9 7.5-.9 3.6-1.9 7.2-2 8-3.1 13-12.5 41.8-20.5 63-2.9 7.4-5.9 15.3-6.7 17.5-.8 2.1-3.4 8.5-5.9 14.1-2.4 5.5-4.7 11.9-5 14-3.4 20.4 6.2 39.2 24.7 48.2 7.3 3.6 10.9 4.4 19.4 4.3 11.8 0 21.2-3.6 29.8-11.2 6.8-5.9 9.9-11.6 18.7-34.4 4.5-11.6 8.6-21.9 9.1-23 2.4-5.3 12.3-34.4 16.7-49 3.2-10.5 8.8-31.2 9.6-35.5.2-1.4 1.1-5.4 2-9 .8-3.6 1.7-7.6 2-9 3.4-18.3 5.6-30.2 6-33.6.4-2.2 1-6 1.4-8.5l.8-4.4 14-.3c10.9-.2 14.1 0 14.1 1 .1 1.4 2 13.7 2.8 18 .7 3.6 1.1 6.4 2 11.3 5.5 32.7 16 71.2 29.3 108 8.3 22.9 21.4 55.2 24.4 59.8 5.2 8.1 16.5 16.4 24.8 18.3 7.2 1.5 12.2 1.9 18.3 1.2 20.5-2.1 37.3-19.7 39-40.7.6-8.2-1.4-16.3-7.8-30.6-6.1-13.5-24.7-65-26.1-71.9-.2-1.1-1-4-1.8-6.5-4-12.2-12.8-52.4-15.2-69.1-.4-3-.8-5.7-.9-6-.1-.3-.5-3-.9-6s-.9-6.7-1.2-8.1c-.5-3.7-2-15.2-2.9-23.2-1.7-15.3-3-29.9-4-44.2-.3-4.4-.7-10.3-1-13-.3-2.8-.7-9.7-1-15.5-.3-5.8-.7-15-1-20.5-1.7-35.2-2.7-86.5-1.7-86.6.4 0 2.1-.2 3.7-.4 1.7-.2 5.4-.7 8.4-1 2.9-.4 6.3-.8 7.5-1 1.1-.2 4.4-.6 7.1-1 6-.7 21.3-3 26.5-4 1.4-.3 4.1-.7 6-1 3.2-.5 38.2-6.9 44-8.1 11-2.2 24.1-4.9 33.9-7 6.4-1.4 12.7-2.8 14.1-3 1.4-.3 5-1.1 8-1.9 5.2-1.3 6.5-1.6 13.5-3 2.5-.5 20.3-4.6 25.5-5.9.8-.2 4.6-1.1 8.4-2 9-2.1 15.8-5.9 22.1-12.2 20.3-20.6 15.1-55.7-10.3-69.2-11.2-6-22.7-6.8-38.7-2.8-5.5 1.4-11.1 2.7-12.5 3-1.4.2-4.7 1-7.5 1.6-2.7.6-5.7 1.3-6.5 1.5-.8.2-6.7 1.5-13 3-19.6 4.5-58.9 12.7-75 15.5-3.6.7-7.4 1.4-8.5 1.6-9.8 1.7-25.9 4.4-29.5 4.9-2.5.3-5.6.8-7 1-1.4.2-4.5.7-7 1-2.5.3-5.6.8-7 1-1.4.2-5 .7-8 1-3 .3-6.6.8-8 1-1.4.2-6 .6-10.2 1-4.3.3-9 .8-10.6 1-1.5.2-7.7.7-13.7 1-6.1.4-13.2.9-16 1-6.9.5-52.1.5-57.2.1-2.2-.2-9.9-.7-16.9-1.1-7-.4-13.5-.8-14.4-1-.8-.1-5.3-.6-10-1s-9.2-.9-10-1c-.9-.2-4.3-.6-7.5-1-3.3-.4-7.1-.8-8.5-1-1.4-.2-4.7-.7-7.5-1-5.5-.7-50.5-8.2-54.5-9-1.4-.3-4.1-.8-6-1.1-1.9-.3-9.8-1.9-17.5-3.5-7.7-1.6-15.1-3.1-16.5-3.4-1.9-.3-33.3-7.2-41-9-.8-.2-5.8-1.3-11-2.5-5.2-1.1-13-3-17.3-4.1-14.2-3.6-20.5-4-29.4-1.9z"/></svg>